<?xml version="1.0" standalone="no"?>
<!DOCTYPE svg PUBLIC "-//W3C//DTD SVG 20010904//EN"
 "http://www.w3.org/TR/2001/REC-SVG-20010904/DTD/svg10.dtd">
<svg version="1.0" xmlns="http://www.w3.org/2000/svg"
 width="2732.000000pt" height="2048.000000pt" viewBox="0 0 2732.000000 2048.000000"
 preserveAspectRatio="xMidYMid meet">
<metadata>
Created by potrace 1.15, written by Peter Selinger 2001-2017
</metadata>
<g transform="translate(0.000000,2048.000000) scale(0.100000,-0.100000)"
fill="#000000" stroke="none">
<path d="M13420 19859 c-2049 -105 -4020 -878 -5595 -2193 -453 -377 -920
-852 -1292 -1313 -1169 -1446 -1887 -3225 -2057 -5093 -30 -320 -39 -597 -33
-980 8 -482 28 -744 92 -1195 378 -2652 1887 -5046 4112 -6526 706 -469 1435
-825 2238 -1094 1865 -625 3838 -655 5720 -90 1295 389 2491 1053 3530 1960
209 183 666 639 838 836 574 659 1001 1295 1372 2044 1115 2249 1295 4814 505
7185 -405 1216 -1040 2316 -1904 3300 -249 284 -686 708 -1006 976 -1465 1228
-3312 1989 -5240 2158 -393 35 -900 45 -1280 25z m1065 -928 c1160 -102 2151
-378 3150 -878 1932 -967 3433 -2646 4179 -4676 271 -738 427 -1457 498 -2297
20 -242 17 -1094 -5 -1330 -62 -664 -169 -1220 -342 -1785 -634 -2069 -2028
-3815 -3915 -4903 -1269 -731 -2739 -1122 -4220 -1122 -1677 0 -3290 485
-4687 1407 -843 556 -1579 1259 -2187 2086 -683 931 -1181 2029 -1431 3151
-542 2444 0 4970 1495 6961 245 327 448 562 750 869 1250 1272 2849 2111 4600
2415 285 50 677 95 1005 115 128 8 987 -3 1110 -13z"/>
<path d="M13305 16228 c-115 -5 -212 -12 -215 -16 -11 -17 -68 -31 -150 -37
-56 -5 -96 -14 -116 -26 -21 -13 -50 -19 -89 -19 -40 0 -65 -6 -84 -19 -15
-11 -54 -23 -89 -27 -44 -5 -65 -12 -72 -24 -6 -12 -26 -19 -61 -22 -30 -3
-57 -12 -63 -20 -6 -9 -31 -19 -54 -23 -24 -4 -46 -13 -49 -21 -3 -8 -24 -19
-47 -26 -22 -6 -52 -20 -65 -30 -13 -10 -34 -18 -47 -18 -13 0 -28 -8 -33 -19
-6 -10 -26 -22 -46 -25 -19 -4 -39 -15 -45 -26 -7 -13 -21 -20 -40 -20 -17 0
-34 -8 -42 -19 -7 -10 -23 -21 -35 -25 -13 -4 -23 -13 -23 -19 0 -12 -44 -37
-66 -37 -6 0 -14 -9 -17 -20 -3 -12 -14 -20 -27 -20 -13 0 -24 -8 -27 -20 -3
-11 -13 -20 -22 -20 -10 0 -28 -11 -41 -25 -13 -14 -29 -25 -37 -25 -7 0 -20
-11 -29 -25 -9 -14 -23 -25 -30 -25 -8 0 -14 -7 -14 -15 0 -9 -11 -21 -25 -27
-13 -6 -27 -19 -30 -30 -4 -10 -15 -18 -26 -18 -12 0 -19 -7 -19 -20 0 -11 -7
-20 -15 -20 -9 0 -21 -11 -27 -25 -6 -13 -19 -27 -30 -30 -10 -4 -18 -15 -18
-26 0 -12 -7 -19 -19 -19 -13 0 -21 -8 -23 -22 -2 -15 -11 -24 -25 -26 -15 -2
-23 -10 -23 -22 0 -11 -9 -24 -20 -30 -11 -6 -22 -21 -26 -34 -3 -13 -17 -33
-30 -45 -13 -11 -24 -27 -24 -35 0 -7 -9 -16 -20 -19 -12 -3 -20 -14 -20 -27
0 -11 -11 -31 -25 -44 -14 -13 -25 -31 -25 -41 0 -9 -8 -19 -18 -22 -11 -3
-23 -21 -30 -49 -7 -27 -18 -44 -27 -44 -9 0 -15 -9 -15 -25 0 -14 -9 -34 -19
-44 -10 -10 -22 -29 -26 -41 -4 -12 -18 -38 -31 -57 -13 -20 -24 -46 -24 -59
0 -13 -9 -29 -20 -36 -11 -7 -20 -24 -20 -38 0 -39 -11 -70 -25 -70 -7 0 -16
-19 -19 -45 -4 -24 -14 -49 -23 -53 -10 -6 -17 -28 -21 -63 -2 -31 -12 -62
-22 -74 -10 -11 -21 -45 -24 -76 -4 -31 -16 -72 -26 -92 -11 -20 -22 -68 -26
-114 -4 -45 -15 -92 -26 -111 -14 -26 -18 -54 -18 -135 0 -73 -6 -127 -21
-183 -20 -75 -21 -104 -21 -553 1 -427 2 -475 17 -491 13 -15 18 -47 22 -147
4 -95 10 -139 24 -170 11 -23 19 -55 19 -71 0 -50 20 -135 35 -152 8 -9 18
-44 21 -78 5 -41 11 -62 20 -62 7 0 16 -16 19 -35 3 -19 7 -51 10 -70 4 -20
12 -35 20 -35 8 0 16 -18 20 -50 4 -31 12 -50 20 -50 13 0 25 -30 25 -67 0
-14 6 -23 15 -23 8 0 19 -17 26 -42 6 -24 20 -51 30 -61 11 -10 22 -31 25 -47
4 -16 14 -30 25 -33 13 -4 19 -14 19 -34 0 -19 9 -37 25 -51 14 -12 25 -28 25
-35 0 -6 8 -17 19 -24 10 -6 21 -25 24 -41 4 -18 14 -33 27 -37 11 -3 20 -15
20 -25 0 -10 9 -21 19 -25 10 -3 21 -15 24 -25 3 -11 12 -20 20 -20 9 0 19
-10 23 -22 7 -25 13 -33 67 -90 19 -21 37 -45 41 -53 3 -8 12 -15 21 -15 8 0
15 -7 15 -15 0 -8 11 -22 25 -31 14 -9 25 -23 25 -30 0 -8 4 -14 9 -14 4 0 31
-21 59 -47 96 -89 110 -101 130 -107 11 -4 22 -16 25 -26 3 -12 14 -20 26 -20
14 0 21 -6 21 -20 0 -14 7 -20 21 -20 12 0 23 -8 26 -19 3 -11 16 -22 29 -25
13 -4 24 -13 24 -20 0 -8 16 -20 36 -26 19 -7 38 -19 41 -27 3 -8 16 -19 29
-24 13 -4 24 -15 24 -24 0 -8 9 -15 20 -15 11 0 27 -11 36 -25 9 -14 25 -25
35 -25 10 0 26 -8 36 -19 10 -10 28 -24 41 -30 12 -6 22 -18 22 -26 0 -9 9
-15 21 -15 12 0 34 -11 51 -25 16 -14 36 -25 43 -25 8 0 17 -9 20 -20 3 -11
14 -20 24 -20 10 0 30 -11 45 -25 15 -14 36 -25 47 -25 12 0 23 -8 26 -19 3
-12 17 -21 40 -26 23 -4 37 -13 40 -26 3 -10 11 -19 18 -19 8 0 27 -11 43 -25
17 -14 39 -25 50 -25 12 0 27 -8 34 -19 7 -10 28 -22 46 -25 18 -4 37 -16 42
-27 6 -10 19 -19 30 -19 11 0 27 -8 37 -19 10 -10 29 -22 43 -26 14 -4 33 -16
43 -27 10 -10 32 -22 49 -25 18 -4 33 -14 35 -25 4 -14 15 -18 45 -18 31 0 41
-4 45 -19 3 -13 17 -22 44 -26 25 -4 40 -13 44 -26 4 -13 16 -19 35 -19 16 0
37 -8 47 -19 10 -10 30 -21 46 -25 15 -4 36 -15 46 -25 11 -11 33 -22 50 -26
18 -4 37 -15 44 -26 7 -11 23 -19 40 -19 15 0 30 -7 33 -15 3 -8 24 -20 45
-26 21 -7 39 -15 39 -19 0 -10 48 -30 71 -30 11 0 22 -7 25 -15 3 -8 22 -19
42 -26 21 -6 46 -19 57 -29 11 -10 31 -21 45 -25 14 -4 36 -16 49 -26 13 -11
35 -19 48 -19 16 0 27 -7 30 -20 4 -14 17 -21 49 -26 26 -4 44 -12 44 -19 0
-15 22 -25 56 -25 17 0 27 -8 34 -25 7 -18 17 -25 35 -25 14 0 34 -9 45 -20
11 -11 27 -20 34 -20 8 0 27 -11 42 -25 15 -14 38 -25 50 -25 17 0 24 -6 24
-20 0 -11 7 -20 15 -20 18 0 51 -18 77 -42 10 -10 24 -18 32 -18 7 0 16 -9 19
-20 3 -12 14 -20 25 -20 11 0 30 -11 43 -25 13 -13 31 -25 40 -25 9 0 19 -9
22 -20 3 -12 14 -20 26 -20 14 0 21 -6 21 -20 0 -13 7 -20 19 -20 11 0 23 -9
26 -21 4 -11 18 -24 31 -29 14 -6 24 -18 24 -30 0 -13 7 -20 20 -20 13 0 20
-7 20 -19 0 -11 9 -23 20 -26 11 -3 20 -13 20 -22 0 -8 8 -17 19 -20 19 -5 41
-42 41 -68 0 -7 9 -17 20 -20 13 -4 20 -15 20 -30 0 -14 7 -26 19 -30 12 -3
21 -19 26 -42 4 -21 14 -42 22 -48 9 -6 19 -35 24 -64 4 -29 15 -58 22 -65 8
-6 20 -40 27 -76 6 -36 16 -67 21 -70 21 -13 31 -164 27 -391 -4 -219 -5 -238
-25 -272 -12 -20 -25 -64 -29 -98 -5 -48 -11 -63 -25 -66 -15 -4 -19 -15 -19
-45 0 -31 -4 -41 -19 -45 -14 -3 -22 -17 -26 -44 -4 -23 -14 -43 -26 -49 -10
-6 -19 -20 -19 -30 0 -11 -7 -20 -15 -20 -8 0 -22 -16 -31 -36 -9 -20 -24 -38
-31 -41 -8 -3 -19 -16 -24 -29 -4 -13 -15 -24 -24 -24 -8 0 -15 -4 -15 -9 0
-14 -83 -91 -98 -91 -6 0 -22 -11 -34 -25 -12 -14 -27 -25 -34 -25 -8 0 -18
-9 -24 -20 -7 -13 -21 -20 -40 -20 -18 0 -33 -7 -39 -18 -5 -9 -30 -23 -55
-30 -26 -7 -46 -18 -46 -26 0 -13 -48 -26 -102 -26 -15 0 -31 -8 -37 -17 -8
-15 -36 -19 -196 -26 -256 -12 -663 3 -679 25 -7 10 -37 18 -91 23 -49 4 -83
12 -90 21 -5 8 -38 20 -72 26 -46 8 -64 17 -69 30 -4 13 -15 18 -46 18 -31 0
-41 4 -45 19 -3 11 -17 21 -34 25 -16 3 -37 15 -46 26 -10 11 -25 20 -35 20
-9 0 -20 9 -23 20 -3 11 -13 20 -20 20 -8 0 -22 11 -31 25 -9 14 -22 25 -29
25 -7 0 -16 11 -19 24 -3 13 -15 26 -26 29 -11 3 -20 12 -20 20 0 8 -9 17 -20
20 -12 3 -20 14 -20 26 0 14 -6 21 -19 21 -12 0 -20 9 -24 28 -3 15 -17 40
-31 55 -14 16 -26 36 -26 46 0 10 -8 26 -19 35 -10 9 -21 35 -25 57 -3 22 -13
42 -20 45 -8 3 -17 26 -21 52 -4 26 -14 55 -23 65 -10 11 -19 46 -23 89 -4 45
-12 75 -21 82 -8 6 -17 35 -21 68 -3 32 -8 62 -12 68 -4 7 -313 10 -941 10
l-934 0 0 -59 c0 -36 7 -77 19 -103 14 -33 20 -76 23 -172 3 -103 7 -130 20
-137 11 -6 17 -34 22 -116 6 -78 12 -113 24 -126 11 -13 18 -42 20 -90 3 -71
17 -127 32 -127 4 0 10 -30 13 -66 4 -40 15 -81 27 -102 12 -19 24 -58 27 -85
4 -32 12 -53 24 -60 13 -8 19 -24 19 -50 0 -23 8 -49 19 -63 10 -13 22 -44 25
-69 5 -29 14 -49 27 -55 14 -8 19 -21 19 -50 0 -29 5 -40 19 -45 12 -3 21 -19
26 -43 4 -20 15 -42 26 -50 10 -7 22 -31 25 -53 5 -28 11 -39 24 -39 13 0 19
-11 24 -40 3 -22 11 -40 16 -40 6 0 16 -12 23 -27 6 -16 18 -33 25 -38 7 -6
16 -24 20 -40 5 -17 18 -34 30 -40 12 -5 22 -18 22 -28 0 -11 9 -21 20 -24 11
-3 20 -13 20 -22 0 -10 11 -28 24 -40 13 -13 27 -33 30 -46 3 -12 15 -25 26
-28 12 -3 20 -13 20 -26 0 -15 6 -21 21 -21 12 0 23 -8 26 -20 3 -10 14 -22
24 -25 10 -4 19 -14 19 -24 0 -10 11 -23 25 -29 14 -6 25 -18 25 -27 0 -8 9
-15 20 -15 13 0 20 -7 20 -19 0 -11 9 -21 24 -25 13 -3 26 -15 29 -26 3 -12
13 -20 26 -20 12 0 21 -6 21 -15 0 -8 16 -22 35 -31 20 -9 40 -25 46 -35 5
-11 19 -19 29 -19 13 0 20 -7 20 -20 0 -15 7 -20 25 -20 14 0 29 -8 35 -20 6
-10 26 -22 45 -26 25 -4 35 -11 35 -25 0 -14 7 -19 25 -19 14 0 34 -9 45 -20
11 -11 26 -20 33 -20 6 0 32 -14 56 -30 24 -17 49 -30 55 -30 6 0 22 -9 36
-20 14 -11 37 -20 51 -20 14 0 36 -9 48 -20 13 -10 43 -22 67 -26 26 -4 44
-12 44 -19 0 -16 22 -25 63 -25 46 0 77 -10 77 -25 0 -8 23 -15 64 -20 43 -4
70 -12 81 -25 11 -13 38 -20 93 -25 43 -4 88 -14 102 -23 17 -11 61 -18 137
-23 83 -5 116 -11 128 -23 11 -11 35 -16 73 -17 31 0 129 -5 217 -11 88 -5
206 -12 263 -15 69 -3 102 -8 102 -16 0 -9 2 -9 8 0 5 8 61 13 182 16 314 8
582 27 615 44 17 9 73 18 131 22 73 5 106 12 118 23 11 11 43 19 96 24 54 4
80 11 80 19 0 8 26 18 66 25 38 7 75 21 85 31 12 12 33 19 59 19 26 0 47 7 59
19 11 11 37 23 58 27 21 4 46 15 56 25 10 11 31 19 48 19 17 0 32 6 35 15 3 8
22 19 41 26 20 6 51 22 71 35 19 13 41 24 48 24 7 0 18 9 24 20 7 13 21 20 41
20 22 0 32 5 36 20 3 11 12 20 19 20 8 0 22 9 32 20 9 11 34 25 54 31 22 5 38
16 38 24 0 8 11 17 25 21 14 3 25 13 25 20 0 8 11 19 25 24 14 5 28 16 31 24
3 8 18 19 34 26 16 7 31 18 34 26 3 8 17 19 31 24 14 5 25 16 25 25 0 8 8 15
18 15 11 0 24 11 30 25 6 14 18 25 27 25 8 0 15 8 15 18 0 11 11 24 25 30 14
6 25 18 25 26 0 7 9 16 21 19 11 3 23 15 26 26 3 12 11 21 18 21 7 0 18 13 25
30 7 16 19 35 27 42 8 7 19 22 24 35 5 13 15 23 24 23 8 0 17 11 21 25 3 14
12 25 20 25 8 0 20 15 27 32 8 18 21 39 30 47 10 7 17 24 17 37 0 17 6 24 20
24 13 0 20 7 20 19 0 11 11 33 25 49 14 17 25 35 25 42 0 7 11 23 25 36 15 13
25 34 25 49 0 18 6 29 20 32 14 4 21 17 26 48 4 31 12 45 25 48 13 4 19 14 19
35 0 40 9 62 25 62 8 0 16 18 20 42 4 23 13 48 21 55 13 14 34 75 34 103 0 8
8 20 19 27 13 8 20 27 23 68 3 38 10 60 20 66 10 6 19 31 23 71 5 37 14 67 22
74 10 7 18 38 23 89 5 48 13 83 22 89 9 7 18 48 25 114 6 57 16 109 23 117 12
15 30 158 30 251 0 34 9 90 20 124 19 59 20 90 20 484 0 352 -3 431 -16 476
-8 30 -19 109 -24 175 -10 137 -18 185 -32 202 -5 6 -14 56 -20 110 -8 71 -16
103 -30 116 -13 13 -18 33 -18 72 0 40 -5 60 -19 74 -10 10 -21 41 -25 71 -4
30 -14 58 -22 64 -7 6 -18 33 -23 60 -5 28 -16 55 -25 62 -9 6 -16 18 -16 26
0 29 -22 78 -35 78 -9 0 -16 17 -21 45 -5 35 -10 45 -25 45 -14 0 -19 7 -19
30 0 18 -8 37 -20 47 -11 10 -20 23 -20 29 0 6 -11 23 -25 38 -14 15 -25 38
-25 51 0 18 -7 26 -25 31 -15 4 -25 13 -25 25 0 10 -9 24 -20 32 -11 8 -23 28
-26 45 -4 18 -14 32 -25 35 -11 3 -19 14 -19 26 0 12 -6 21 -15 21 -8 0 -21
14 -30 30 -9 17 -22 30 -30 30 -8 0 -15 6 -15 14 0 7 -11 21 -25 30 -14 9 -25
20 -25 25 0 17 -155 181 -239 251 -72 61 -81 70 -81 81 0 5 -6 9 -14 9 -7 0
-21 11 -30 25 -9 14 -23 25 -31 25 -7 0 -17 9 -20 20 -3 11 -15 20 -26 20 -12
0 -19 7 -19 20 0 12 -7 20 -16 20 -9 0 -29 11 -46 25 -16 14 -36 25 -43 25 -8
0 -20 8 -27 18 -7 11 -23 24 -35 31 -13 6 -23 18 -23 25 0 8 -16 17 -36 21
-24 4 -38 13 -41 26 -4 12 -14 19 -30 19 -16 0 -27 7 -30 19 -3 12 -17 21 -40
26 -23 4 -37 13 -40 26 -3 11 -14 19 -25 19 -11 0 -29 11 -40 25 -11 14 -30
25 -43 25 -13 0 -30 8 -37 19 -7 10 -28 22 -46 25 -18 4 -37 16 -42 27 -6 10
-19 19 -30 19 -11 0 -27 9 -37 19 -10 11 -30 22 -46 26 -15 4 -31 12 -35 19
-9 14 -48 36 -65 36 -7 0 -20 9 -30 20 -10 12 -29 20 -48 20 -22 0 -32 5 -36
19 -3 13 -17 21 -48 25 -31 5 -44 12 -48 26 -4 15 -14 20 -40 20 -24 0 -40 6
-49 19 -8 11 -31 22 -51 26 -21 4 -42 16 -47 26 -6 10 -27 21 -48 25 -20 4
-43 15 -50 26 -8 11 -25 18 -47 18 -24 0 -35 5 -40 19 -3 12 -19 21 -42 26
-21 4 -42 13 -48 21 -6 9 -29 18 -52 21 -28 4 -43 11 -46 23 -3 11 -19 19 -46
24 -22 3 -41 10 -41 14 0 10 -65 42 -84 42 -7 0 -21 9 -31 20 -10 11 -27 20
-37 20 -11 0 -31 9 -45 20 -14 11 -33 20 -42 20 -10 0 -32 11 -51 25 -19 14
-44 25 -56 25 -12 0 -32 11 -45 25 -13 13 -33 25 -45 25 -11 0 -30 9 -41 20
-12 10 -34 22 -50 26 -15 4 -36 15 -46 25 -10 11 -28 19 -40 19 -12 0 -28 9
-34 20 -7 10 -29 22 -49 26 -23 4 -38 13 -41 25 -3 11 -18 20 -43 24 -26 4
-40 13 -43 26 -3 11 -14 19 -25 19 -12 0 -27 9 -35 20 -8 11 -28 23 -45 26
-18 4 -32 14 -35 25 -3 11 -14 19 -25 19 -11 0 -22 7 -26 15 -3 8 -23 22 -46
31 -22 9 -40 22 -40 30 0 7 -11 16 -24 20 -13 3 -26 14 -29 25 -3 11 -14 19
-26 19 -12 0 -21 6 -21 15 0 9 -8 18 -17 22 -15 5 -32 18 -98 72 -5 4 -33 35
-62 67 -29 32 -61 69 -73 82 -11 12 -20 30 -20 38 0 9 -9 18 -20 21 -11 3 -20
12 -20 19 0 8 -8 22 -17 32 -23 24 -43 59 -43 74 0 7 -9 19 -20 26 -14 8 -20
23 -20 49 0 23 -7 45 -20 58 -12 13 -22 42 -26 80 -4 33 -14 68 -23 79 -14 16
-16 61 -19 345 -3 309 -2 328 17 361 11 20 23 59 27 87 4 31 14 59 25 69 11 9
19 30 19 45 0 38 9 59 26 59 8 0 14 8 14 18 0 10 13 33 30 52 16 19 29 40 30
47 0 7 9 17 20 23 11 6 20 20 20 30 0 13 7 20 19 20 11 0 22 9 26 19 3 11 14
23 24 26 11 3 21 15 24 25 3 12 14 20 26 20 11 0 25 9 31 20 6 10 26 22 44 26
22 4 36 13 39 25 3 13 18 20 45 25 28 4 42 12 45 25 4 15 14 19 47 19 26 0 53
8 70 20 19 13 53 23 95 27 36 3 65 10 65 14 0 25 90 30 446 27 328 -3 374 -5
390 -19 11 -10 47 -20 84 -24 44 -5 71 -13 83 -26 11 -12 32 -19 57 -19 29 0
40 -5 45 -19 4 -13 19 -22 44 -26 26 -4 41 -13 44 -25 3 -10 18 -21 35 -25 17
-3 36 -13 43 -22 7 -8 23 -19 36 -24 13 -5 23 -15 23 -23 0 -7 11 -17 25 -20
16 -4 25 -13 25 -26 0 -14 7 -20 21 -20 12 0 23 -8 26 -20 3 -11 11 -20 19
-20 7 0 20 -13 29 -30 9 -16 22 -30 30 -30 8 0 15 -8 15 -18 0 -10 9 -25 20
-35 11 -9 23 -30 26 -46 4 -16 14 -31 24 -34 12 -3 20 -18 25 -46 4 -25 14
-45 26 -51 14 -8 19 -22 19 -55 0 -52 8 -75 25 -75 9 0 15 -29 20 -102 4 -57
13 -116 21 -133 8 -16 18 -74 21 -127 l6 -98 896 0 c493 0 907 3 919 7 23 6
24 8 19 107 -3 56 -12 133 -21 171 -8 39 -15 118 -16 176 0 76 -5 118 -17 145
-9 22 -22 88 -29 149 -8 70 -18 113 -27 120 -9 6 -17 40 -22 90 -4 48 -13 87
-22 97 -8 9 -19 49 -23 89 -5 48 -13 75 -23 81 -9 5 -18 30 -22 63 -5 33 -14
60 -26 71 -12 11 -19 31 -19 55 0 30 -6 42 -25 55 -19 13 -25 25 -25 54 0 24
-7 43 -19 54 -11 10 -23 32 -26 48 -4 17 -16 39 -26 49 -10 10 -19 29 -19 42
0 12 -9 28 -19 34 -11 7 -22 26 -26 43 -4 16 -15 35 -25 40 -10 5 -21 24 -25
40 -4 17 -15 36 -26 43 -10 6 -19 22 -19 34 0 16 -6 23 -20 23 -13 0 -20 7
-20 18 0 10 -11 29 -25 42 -14 13 -25 29 -25 35 0 6 -11 21 -25 33 -14 12 -25
28 -25 36 0 7 -9 16 -21 19 -11 3 -23 15 -26 26 -3 12 -14 21 -24 21 -12 0
-19 7 -19 20 0 11 -7 20 -15 20 -9 0 -21 11 -27 25 -6 13 -19 27 -30 30 -10 4
-18 13 -18 21 0 8 -11 19 -24 23 -13 5 -26 17 -29 25 -4 9 -13 16 -21 16 -9 0
-20 9 -26 19 -5 11 -26 25 -45 31 -19 6 -35 18 -35 26 0 7 -11 16 -24 20 -13
3 -26 14 -29 25 -3 11 -14 19 -27 19 -11 0 -32 11 -46 25 -14 14 -33 25 -43
25 -10 0 -21 9 -24 19 -3 13 -17 21 -45 26 -28 4 -43 13 -47 26 -5 14 -16 19
-40 19 -23 0 -38 6 -44 19 -6 10 -27 22 -48 26 -21 4 -46 15 -56 26 -10 10
-35 22 -57 25 -21 4 -48 15 -59 25 -13 12 -35 19 -59 19 -25 0 -45 7 -56 19
-11 12 -38 21 -79 25 -38 5 -70 14 -82 26 -15 13 -40 19 -97 22 -52 2 -82 8
-95 20 -12 11 -48 18 -117 23 -59 4 -117 15 -142 25 -37 16 -91 20 -406 29
-399 12 -437 12 -743 -1z"/>
</g>
</svg>
